<svg xmlns="http://www.w3.org/2000/svg" viewBox="0 0 752.39 141.07">
    <defs>
        <style>.cls-1{fill:#da1017;fill-rule:evenodd;}</style>
    </defs>
    <title>未标题-1</title>
    <path class="cls-1"
          d="M89.3,42.89l-4.93-.22s-2.36-15.8-13.3-26S53.92,4.14,41.69,5.23,23.47,12.59,23.25,23.41s3.22,19.26,19.52,27.48S66.14,58,77.08,66.48,91,82.28,93,89.42s2.36,21.86-4.29,33.11S67.21,140.28,55.2,141.37,24.11,138.12,17.68,136s-6.44-2.81-9.22-1.08-3.65,6.28-3.65,6.28H.52L.31,93.32l5.14.21S9.74,118.85,23.25,128s19.3,8,19.3,8,21.45,3.9,28.31-13.63S64.21,95.48,58.42,92.23,23,75.14,15.53,67.78-.34,50.24,4,31,19.82,3.06,39.76,1.11,68.71,5,68.71,5s8.37,4.11,10.94,2.81,5.15-2.16,5.36-5S84.8.68,84.8.68L89.3.46V42.89ZM430.38,21s1.07-4.54-4.08-9.41A14.35,14.35,0,0,0,415.37,7.5l-.11-4.33H458.9l34.53,93L528.7,3.71h48.36V7.6s-4.61-1.51-10.4,3.47-4.61,9.52-4.61,9.52V121.45s.11,6.17,4.18,9.2,10.51,3.14,10.51,3.14v4l-59-.11.1-4s7.19.76,11.48-4.55,3.32-9.52,3.32-9.52l.11-103.46-45.36,121-5.25-.11L438.1,20.48V122.42s-.32,6,4.5,8.77,8,2.71,8,2.71h2.26v3.89l-37.75.11.22-3.57s8.68-.43,12.44-5.2,2.78-9.09,2.78-9.09l-.21-99Zm253.26,2.49s1.39-5-3.65-10.28S671.63,8,671.63,8H647.72V3H752.37l.32,40.69h-4a31.58,31.58,0,0,0-7.82-23.81c-9.76-11-20.16-12.12-20.16-12.12L712,7.6V119.93s-.43,6.71,4.29,10.28,13.51,3.57,13.51,3.57V138H666.16v-4s9,.43,13.08-4.11a17.2,17.2,0,0,0,4.4-9.42v-97Zm-75.48,1.3.1,92s.54,8.33-4,13.42-13.84,3.46-13.84,3.46v4.44l64.12-.11-.1-4s-8.9-.11-13.41-3.9-4-9.85-4-9.85l.32-116.88H590.25V7h4.18a16.59,16.59,0,0,1,10.72,6.28c4.72,5.84,3,11.58,3,11.58ZM256.68,21s1.07-4.54-4.08-9.41A14.37,14.37,0,0,0,241.66,7.5l-.1-4.33H285.2l34.52,93L355,3.71h48.36V7.6s-4.61-1.51-10.4,3.47-4.61,9.52-4.61,9.52V121.45s.1,6.17,4.18,9.2S403,133.79,403,133.79v4l-59-.11.11-4s7.19.76,11.47-4.55,3.33-9.52,3.33-9.52l.11-103.46-45.36,121-5.26-.11L264.4,20.48V122.42s-.33,6,4.5,8.77,8,2.71,8,2.71h2.25v3.89l-37.74.11.21-3.57s8.69-.43,12.44-5.2,2.79-9.09,2.79-9.09l-.21-99ZM115.41,26.17s1.39-12-5.9-15.59-9.76-2.7-9.76-2.7V2.79H160V7.55s-15.12,1.3-15.45,11.8-.21,53.24-.21,53.24v29s3.32,27.7,31.85,28.35,31.2-28,31.2-28l.11-82.57s1.07-3.25-4.29-8.23-10.51-3.68-10.51-3.68l-.43-3.89H229.6V7.23a21.15,21.15,0,0,0-9.22,3.46c-5.14,3.25-4.71,6.93-4.71,6.93l-.86,103.89s-1.5,4.54,4.07,8.44A27.13,27.13,0,0,0,230,134.49l-.21,3.47-74.41.21s-18.88-.65-29.38-15.8S115.3,89.26,115.3,89.26Z"
          transform="translate(-0.31 -0.46)"/>
</svg>